Coordinates
version=1
nRows=9
nColumns=36
inDegrees=yes

Units are S.I. units (second, meters, Newtons, ...)
If the header above contains a line with 'inDegrees', this indicates whether rotational values are in degrees (yes) or radians (no).

endheader
time	pelvis_tilt	pelvis_list	pelvis_rotation	pelvis_tx	pelvis_ty	pelvis_tz	hip_flexion_r	hip_adduction_r	hip_rotation_r	knee_angle_r	knee_angle_r_beta	ankle_angle_r	subtalar_angle_r	mtp_angle_r	hip_flexion_l	hip_adduction_l	hip_rotation_l	knee_angle_l	knee_angle_l_beta	ankle_angle_l	subtalar_angle_l	mtp_angle_l	lumbar_extension	lumbar_bending	lumbar_rotation	arm_flex_r	arm_add_r	arm_rot_r	elbow_flex_r	pro_sup_r	arm_flex_l	arm_add_l	arm_rot_l	elbow_flex_l	pro_sup_l
      9.43333330	    -24.80964165	     -1.05531879	      3.30015273	      0.00800932	      0.40271207	      0.14716645	    116.59701551	    -14.83688452	     12.05477400	    128.83856547	      2.24865717	     43.35740006	     -9.86043697	     -7.49999987	    119.84917490	    -16.78647978	     11.40832408	    129.15903119	      2.25425035	     34.81356355	     -8.25932658	     -7.49999987	    -24.89977042	     -2.74972630	      3.30099086	    100.70062303	      9.01118401	     78.18906861	    127.96779637	     87.94761614	     99.30941774	      4.52365186	     75.87665876	    118.15232274	     82.56090777
      9.45000000	    -23.93035680	     -0.26767133	      3.22847034	      0.00626615	      0.39284587	      0.14655114	    117.21592164	    -14.75619707	     13.58366939	    130.27701162	      2.27376279	     43.61859387	     -8.80650543	     -7.49999987	    119.87269334	    -16.71317526	     11.53216102	    130.57319025	      2.27893208	     34.46132545	     -8.67150166	     -7.49999987	    -26.63892339	     -3.61551681	      2.80610971	    101.45993424	      9.14730803	     77.87413796	    127.83493081	     87.44460253	    100.51530863	      4.38151979	     76.19582121	    118.50115377	     82.27005831
      9.46666670	    -23.00448158	      0.27440704	      2.94450925	      0.01164445	      0.38382557	      0.14791987	    117.80031984	    -14.46494495	     14.90619067	    131.98759872	      2.30361817	     43.71933601	     -7.99660656	     -7.49999987	    119.88957597	    -16.98122209	     12.58876935	    132.15025446	      2.30645705	     34.29413589	     -8.34588558	     -7.49999987	    -28.01116501	     -4.34308309	      2.70964250	    101.66678342	      9.28556174	     77.75163069	    127.62100001	     87.44423325	    101.16775528	      4.20429922	     76.20709172	    118.58106200	     82.25430369
      9.48333330	    -22.41951272	      1.14350427	      2.67127011	      0.02752540	      0.37933940	      0.15612328	    118.30143591	    -13.86825773	     16.37642415	    134.05234943	      2.33965487	     44.25823341	     -7.16736073	     -7.49999987	    119.90317559	    -18.10802934	     13.55582313	    133.77999163	      2.33490133	     34.09157357	     -7.61751087	     -7.49999987	    -28.76102365	     -5.71527582	      2.41238183	    100.87616946	     10.18724918	     78.18866763	    127.43142945	     85.99933522	    101.07807611	      3.68705146	     77.60033841	    119.55476231	     80.95955596
      9.50000000	    -21.40711048	      2.00771831	      2.02180047	      0.02458365	      0.36926739	      0.15924399	    118.68697412	    -12.81993377	     17.57753481	    135.91046577	      2.37208512	     44.56055835	     -6.74531296	     -7.49999987	    119.91361135	    -19.44845542	     14.54154527	    135.39519766	      2.36309199	     34.03206990	     -6.86418786	     -7.49999987	    -29.96929595	     -7.13438356	      2.72937573	    101.12464994	     10.52473317	     78.07329504	    127.22677953	     85.81285562	    101.60037595	      3.51807894	     78.30550998	    120.18755784	     80.82416848
      9.51666670	    -20.40456873	      2.83902635	      1.43529912	      0.02956211	      0.36427673	      0.16258273	    119.11357039	    -11.73009417	     18.84329363	    137.71004219	      2.40349365	     45.11262177	     -5.95605354	     -7.49999987	    119.91744890	    -21.14291974	     15.45913907	    136.85189400	      2.38851614	     33.57731797	     -6.54333944	     -7.49999987	    -31.02804530	     -8.74419378	      2.64635099	    100.96978183	     10.83350206	     77.85045353	    126.82142250	     85.91699178	    102.08111559	      3.44990705	     79.19915180	    120.61800035	     80.89154417
      9.53333330	    -19.49087625	      3.41102689	      0.93937733	      0.02728226	      0.35750836	      0.16623102	    119.30605395	    -10.82183560	     19.50530919	    138.97872640	      2.42563637	     45.42066126	     -5.62312358	     -7.49999987	    119.92116204	    -22.70162149	     16.23030572	    137.81063904	      2.40524940	     34.40360252	     -4.95626963	     -7.49999987	    -32.15445158	    -10.02089788	      2.63288087	    101.18270796	     10.99224949	     77.02929814	    126.54823800	     88.09817769	    103.06395001	      3.69055773	     81.18497196	    121.10935841	     80.06528321
      9.55000000	    -18.64271114	      3.69798576	      0.24755365	      0.02985095	      0.35051932	      0.17031842	    119.38068543	     -9.79150618	     19.64824554	    139.77529617	      2.43953913	     45.32704563	     -5.99566639	     -7.49999987	    119.92457602	    -24.34822807	     17.36001674	    138.59152572	      2.41887844	     34.93908228	     -3.63074181	     -7.49999987	    -33.29771377	    -11.01381520	      2.83614192	    101.61722526	     11.18227985	     76.47807145	    126.31483102	     85.74566118	    104.15609955	      3.76204013	     81.60349231	    121.29035091	     78.40790025
      9.56666670	    -18.16505915	      4.09007756	     -0.46706633	      0.02992191	      0.34852809	      0.17115534	    119.28730835	     -8.87938624	     19.52000595	    139.89512164	      2.44163048	     45.07141544	     -6.77016381	     -7.49999987	    119.92882795	    -25.84290309	     17.69282244	    139.06614427	      2.42716210	     35.43432306	     -2.83407294	     -7.49999987	    -34.31778294	    -12.01016034	      2.91386416	    102.03533719	     11.18237511	     76.21114358	    126.30897097	     84.63422699	    104.98148475	      3.73504382	     82.00805769	    121.20271991	     77.57942325
